<svg width="22" height="21" viewBox="0 0 22 21" fill="none" xmlns="http://www.w3.org/2000/svg">
<path d="M5.5 4.716V2.406C5.50013 2.03306 5.64838 1.67544 5.91213 1.41178C6.17589 1.14812 6.53356 1 6.9065 1H19.0935C19.4665 1 19.8243 1.14818 20.088 1.41195C20.3518 1.67572 20.5 2.03347 20.5 2.4065V14.594C20.4999 14.9669 20.3516 15.3246 20.0879 15.5882C19.8241 15.8519 19.4664 16 19.0935 16H16.7585" stroke="#0C0C0C" stroke-width="2" stroke-linecap="round" stroke-linejoin="round"/>
<path d="M15.094 5H2.9055C2.53265 5.00027 2.17515 5.14857 1.9116 5.41231C1.64805 5.67605 1.5 6.03365 1.5 6.4065V18.5935C1.5 18.9665 1.64818 19.3243 1.91195 19.588C2.17572 19.8518 2.53347 20 2.9065 20H15.094C15.4669 19.9999 15.8246 19.8516 16.0882 19.5879C16.3519 19.3241 16.5 18.9664 16.5 18.5935V6.407C16.5001 6.22225 16.4637 6.0393 16.3931 5.8686C16.3224 5.6979 16.2188 5.54279 16.0882 5.41213C15.9576 5.28147 15.8025 5.17783 15.6319 5.10711C15.4612 5.0364 15.2782 5 15.0935 5H15.094Z" stroke="#0C0C0C" stroke-width="2" stroke-linejoin="round"/>
</svg>
