<svg width="24" height="24" viewBox="0 0 24 24" fill="none" xmlns="http://www.w3.org/2000/svg">
<path fill-rule="evenodd" clip-rule="evenodd" d="M12 24C18.6274 24 24 18.6274 24 12C24 10.9468 23.8643 9.92525 23.6095 8.95194C21.6953 13.7903 17.7196 17.207 5.91852 22.3471C7.70185 23.3975 9.78056 24 12 24ZM1.72198 18.1972C0.628974 16.3883 0 14.2676 0 12C0 5.37258 5.37258 0 12 0C17.3605 0 21.9001 3.51483 23.4398 8.36557C21.6238 9.9811 19.9175 11.335 18.2069 12.4787V5.7931H14.8966V14.4248C14.3533 14.7011 13.8027 14.9604 13.2414 15.2044V8.27586H9.93104V16.4307C9.3931 16.5986 8.84213 16.7569 8.27586 16.9065V10.7586H4.96552V17.6543C3.93914 17.8517 2.86119 18.0312 1.72198 18.1972Z" fill="#464646"/>
</svg>
