<svg width="20" height="21" viewBox="0 0 20 21" fill="none" xmlns="http://www.w3.org/2000/svg">
<circle cx="10" cy="10.5" r="10" fill="#0C0C0C"/>
<path d="M9.0994 11.8862C9.0994 11.403 9.20626 11.0034 9.42 10.6874C9.64303 10.3715 9.96364 10.023 10.3818 9.64197C10.6885 9.36318 10.9115 9.13085 11.0509 8.945C11.1996 8.74984 11.2739 8.53146 11.2739 8.28984C11.2739 7.94601 11.1345 7.67651 10.8558 7.48136C10.5863 7.27692 10.2238 7.17469 9.76849 7.17469C9.33172 7.17469 8.94142 7.26762 8.59758 7.45348C8.26303 7.63005 7.9796 7.88096 7.74727 8.20621L6.06061 7.21651C6.45091 6.62176 6.97596 6.16176 7.63576 5.83651C8.30485 5.51126 9.09475 5.34863 10.0055 5.34863C11.0741 5.34863 11.9291 5.57631 12.5703 6.03166C13.2208 6.48702 13.5461 7.11894 13.5461 7.92742C13.5461 8.30843 13.481 8.64298 13.3509 8.93106C13.2301 9.21914 13.0768 9.4654 12.8909 9.66985C12.7143 9.865 12.482 10.0927 12.1939 10.3529C11.8501 10.6595 11.5992 10.9197 11.4412 11.1335C11.2832 11.3379 11.2042 11.5888 11.2042 11.8862H9.0994ZM10.1588 15.385C9.77778 15.385 9.45717 15.2642 9.19697 15.0226C8.94606 14.7717 8.82061 14.4696 8.82061 14.1165C8.82061 13.7634 8.94606 13.4707 9.19697 13.2383C9.44788 12.9967 9.76849 12.8759 10.1588 12.8759C10.5491 12.8759 10.8697 12.9967 11.1206 13.2383C11.3715 13.4707 11.497 13.7634 11.497 14.1165C11.497 14.4696 11.3669 14.7717 11.1067 15.0226C10.8558 15.2642 10.5398 15.385 10.1588 15.385Z" fill="white"/>
</svg>
