<svg width="18" height="13" viewBox="0 0 18 13" fill="none" xmlns="http://www.w3.org/2000/svg">
<path fill-rule="evenodd" clip-rule="evenodd" d="M0 0.996184C0 0.446007 0.237026 0 0.529412 0H17.4706C17.763 0 18 0.446007 18 0.996184C18 1.54636 17.763 1.99237 17.4706 1.99237H0.529412C0.237026 1.99237 0 1.54636 0 0.996184Z" fill="#0C0C0C"/>
<path fill-rule="evenodd" clip-rule="evenodd" d="M5.29412 6.52481C5.29412 5.97463 5.53114 5.52862 5.82353 5.52862H17.4706C17.763 5.52862 18 5.97463 18 6.52481C18 7.07498 17.763 7.52099 17.4706 7.52099H5.82353C5.53114 7.52099 5.29412 7.07498 5.29412 6.52481Z" fill="#0C0C0C"/>
<path fill-rule="evenodd" clip-rule="evenodd" d="M10.3504 12.0038C10.3504 11.4536 10.5874 11.0076 10.8798 11.0076H17.4706C17.763 11.0076 18 11.4536 18 12.0038C18 12.554 17.763 13 17.4706 13H10.8798C10.5874 13 10.3504 12.554 10.3504 12.0038Z" fill="#0C0C0C"/>
</svg>
