<?xml version="1.0" standalone="no"?>
<!DOCTYPE svg PUBLIC "-//W3C//DTD SVG 20010904//EN"
 "http://www.w3.org/TR/2001/REC-SVG-20010904/DTD/svg10.dtd">
<svg version="1.0" xmlns="http://www.w3.org/2000/svg"
 width="256.000000pt" height="256.000000pt" viewBox="0 0 256.000000 256.000000"
 preserveAspectRatio="xMidYMid meet">
<metadata>
Created by potrace 1.14, written by Peter Selinger 2001-2017
</metadata>
<g transform="translate(0.000000,256.000000) scale(0.100000,-0.100000)"
fill="#000000" stroke="none">
<path d="M1240 2392 c-38 -17 -61 -42 -74 -79 -13 -36 -12 -44 4 -82 11 -23
30 -46 45 -53 24 -11 25 -14 25 -114 0 -97 -1 -104 -22 -115 -13 -7 -25 -15
-28 -18 -3 -3 -29 -18 -58 -34 l-52 -27 -55 40 c-53 39 -55 42 -55 89 0 41 4
50 25 61 83 44 73 170 -17 210 -29 13 -49 16 -69 10 -16 -5 -29 -7 -29 -4 0 2
-11 -6 -25 -18 -57 -49 -57 -137 0 -187 33 -29 35 -34 35 -95 0 -68 0 -68 84
-129 10 -8 16 -18 13 -23 -3 -5 -41 -27 -84 -49 -43 -22 -80 -43 -83 -46 -3
-3 -42 -25 -87 -48 -44 -23 -84 -49 -87 -58 -8 -20 -9 -664 -1 -683 6 -16 24
-27 176 -108 53 -28 114 -62 137 -75 46 -26 48 -21 -31 -80 -36 -27 -37 -30
-37 -92 0 -61 -2 -66 -36 -97 -82 -76 -44 -189 71 -211 64 -12 143 80 124 145
-12 43 -35 75 -59 83 -16 5 -20 15 -20 55 0 48 2 51 54 90 l54 41 53 -31 c30
-17 66 -36 81 -43 27 -11 27 -12 27 -111 l0 -100 -40 -39 c-22 -22 -37 -42
-35 -44 3 -3 1 -15 -4 -28 -20 -52 54 -135 120 -135 71 0 127 67 117 140 -5
42 -41 90 -67 90 -7 0 -10 36 -8 108 l3 107 30 15 c17 9 51 28 77 43 l47 28
56 -41 c53 -39 55 -42 55 -89 0 -41 -4 -50 -26 -61 -34 -18 -54 -59 -54 -108
0 -50 39 -95 94 -111 33 -8 45 -7 78 10 77 39 89 136 23 197 -33 30 -35 36
-35 95 0 67 -7 78 -74 122 -14 10 -26 21 -26 25 0 8 58 42 185 110 33 17 84
46 113 63 l52 31 0 346 0 345 -43 26 c-41 26 -118 69 -242 135 -33 18 -60 37
-60 42 0 6 21 27 48 47 l47 36 0 68 c0 62 2 69 25 81 28 15 55 66 55 105 0 58
-49 110 -110 115 -47 4 -59 0 -94 -34 -32 -29 -36 -39 -36 -83 0 -42 5 -54 31
-81 17 -18 35 -32 40 -32 5 0 9 -22 9 -50 0 -48 -1 -50 -53 -90 l-54 -40 -79
43 -79 42 -3 102 c-3 100 -2 102 23 119 34 22 55 64 55 109 0 52 -52 107 -106
111 -21 1 -46 0 -54 -4z"/>
</g>
</svg>
